# xmcd
#
# Track frame offsets:
#	150
#	15681
#	35227
#	53804
#	73030
#	94439
#	113232
#	131689
#	149949
#	167532
#	184263
#	192541
#
# Disc length: 2705 seconds
#
# Revision: 1
# Processed by: cddbd v1.5.1PL0 Copyright (c) Steve Scherf et al.
# Submitted via: EasyCDDAExtractor 7.0.6.1
#
DISCID=bf0a8f0c
DTITLE=Κονιτοπουλος Βαγγελης - Η Ζαργανα και ο Αλητης
DYEAR=1900
DGENRE=
TTITLE0=Ειμαι Φως Μου Ερωτευμενος
TTITLE1=Η Ζαργανα
TTITLE2=Ο Αλητης
TTITLE3=Αχ!Και  τι δεν Θα 'δινα
TTITLE4=Δεν Μπορω να σε Ξεχασω
TTITLE5=Μεχρι να πεθανει Ο Χαρος
TTITLE6=Σ'επιθύμησα
TTITLE7=Δεν μου δινει Σημασια
TTITLE8=Ολοι στην Κολαση
TTITLE9=Χωρισμος Χωρις Αιτια
TTITLE10=Ματαια
TTITLE11=Δεν Θα Κατσω να σκασω
EXTD=
EXTT0=
EXTT1=
EXTT2=
EXTT3=
EXTT4=
EXTT5=
EXTT6=
EXTT7=
EXTT8=
EXTT9=
EXTT10=
EXTT11=
PLAYORDER=
